<svg xmlns="http://www.w3.org/2000/svg" viewBox="0 0 310.48 310.48"><defs><style>.cls-1{fill:#f3f6f7;}</style></defs><g id="Layer_2" data-name="Layer 2"><g id="Layer_1-2" data-name="Layer 1"><g id="_03Our_Values_Light" data-name="03Our Values Light"><path class="cls-1" d="M155.24,310.48C69.64,310.48,0,240.84,0,155.24S69.64,0,155.24,0,310.48,69.64,310.48,155.24,240.84,310.48,155.24,310.48Zm0-305.71c-83,0-150.47,67.5-150.47,150.47s67.5,150.47,150.47,150.47,150.47-67.5,150.47-150.47S238.21,4.77,155.24,4.77Z"/><path class="cls-1" d="M167.67,195.3H142.14a7.16,7.16,0,0,1-7.13-6.13A44.24,44.24,0,0,0,126.75,169a37.82,37.82,0,0,1-8.82-25.27,37,37,0,0,1,73.95,0A37.82,37.82,0,0,1,183.06,169a44.2,44.2,0,0,0-8.26,20.22,7.16,7.16,0,0,1-7.13,6.13Zm-12.76-83.24a32,32,0,0,0-32.36,31.76A33.47,33.47,0,0,0,130.34,166a48.55,48.55,0,0,1,9.24,22.45,2.58,2.58,0,0,0,2.56,2.2h25.53a2.59,2.59,0,0,0,2.56-2.2A48.55,48.55,0,0,1,179.47,166a33.47,33.47,0,0,0,7.79-22.21,32,32,0,0,0-32.35-31.76Z"/><path class="cls-1" d="M144.64,155a14.52,14.52,0,1,1,10.26,4.25A14.5,14.5,0,0,1,144.64,155Zm3.27-17.27h0a9.89,9.89,0,1,0,7-2.9,9.9,9.9,0,0,0-7,2.9Z"/><path class="cls-1" d="M157.58,172.52H152a3.33,3.33,0,0,1-3.23-2.52l-1-3.88a21.24,21.24,0,0,1-3.23-1.36l-3.37,2h0a3.33,3.33,0,0,1-4.07-.5l-3.91-3.91a3.33,3.33,0,0,1-.5-4.06l2.05-3.43a22.46,22.46,0,0,1-1.32-3.26l-3.81-1h0a3.33,3.33,0,0,1-2.52-3.23v-5.53a3.33,3.33,0,0,1,2.52-3.23l3.88-1a22.37,22.37,0,0,1,1.35-3.24l-2-3.36h0a3.33,3.33,0,0,1,.5-4.07l3.91-3.91h0a3.33,3.33,0,0,1,4.07-.5l3.42,2.05a22.86,22.86,0,0,1,3.25-1.33l1-3.8a3.31,3.31,0,0,1,3.22-2.52h5.54a3.32,3.32,0,0,1,3.23,2.52l1,3.87a22.9,22.9,0,0,1,3.24,1.36l3.36-2a3.34,3.34,0,0,1,4.07.5l3.91,3.92a3.31,3.31,0,0,1,.5,4.06L175,134.67h0a21.28,21.28,0,0,1,1.32,3.25l3.81,1h0a3.33,3.33,0,0,1,2.52,3.23v5.54a3.34,3.34,0,0,1-2.52,3.23l-3.87,1a22,22,0,0,1-1.36,3.24l2,3.37h0a3.31,3.31,0,0,1-.5,4.06l-3.91,3.92a3.33,3.33,0,0,1-4.07.5L165,164.86a22.39,22.39,0,0,1-3.25,1.33l-.95,3.81a3.33,3.33,0,0,1-3.23,2.52Zm-4.53-4.63h3.52l1-4.12h0a2.31,2.31,0,0,1,1.68-1.68,17.88,17.88,0,0,0,4.62-1.88,2.3,2.3,0,0,1,2.35,0l3.7,2.21,2.48-2.48-2.19-3.64a2.36,2.36,0,0,1,0-2.38,18,18,0,0,0,1.94-4.61,2.31,2.31,0,0,1,1.67-1.65l4.18-1v-3.51l-4.12-1h0a2.31,2.31,0,0,1-1.69-1.68,17.53,17.53,0,0,0-1.88-4.62,2.32,2.32,0,0,1,0-2.36l2.22-3.69-2.49-2.48-3.64,2.18h0a2.31,2.31,0,0,1-2.38,0,17.88,17.88,0,0,0-4.6-1.93,2.3,2.3,0,0,1-1.66-1.68l-1-4.17h-3.51l-1,4.12h0a2.31,2.31,0,0,1-1.69,1.68,17.91,17.91,0,0,0-4.62,1.89,2.32,2.32,0,0,1-2.36,0l-3.68-2.21-2.49,2.49,2.19,3.64a2.34,2.34,0,0,1,0,2.37,18,18,0,0,0-1.94,4.61,2.3,2.3,0,0,1-1.67,1.66l-4.18,1v3.51l4.13,1a2.34,2.34,0,0,1,1.68,1.68,17.6,17.6,0,0,0,1.88,4.63,2.3,2.3,0,0,1,0,2.35l-2.21,3.69,2.48,2.49,3.64-2.19h0a2.31,2.31,0,0,1,2.38,0,17.91,17.91,0,0,0,4.6,1.94,2.29,2.29,0,0,1,1.66,1.67Z"/><path class="cls-1" d="M152.59,98.19V88.94a2.32,2.32,0,0,1,4.63,0v9.25a2.32,2.32,0,0,1-4.63,0Z"/><path class="cls-1" d="M126.31,106.47l-4.62-8a2.31,2.31,0,0,1,4-2.31l4.63,8a2.31,2.31,0,0,1-4,2.31Z"/><path class="cls-1" d="M107.7,126.78l-8-4.62a2.31,2.31,0,0,1,2.31-4l8,4.63a2.31,2.31,0,0,1-2.31,4Z"/><path class="cls-1" d="M101.73,153.68H92.48a2.31,2.31,0,0,1,0-4.62h9.25a2.31,2.31,0,1,1,0,4.62Z"/><path class="cls-1" d="M99.69,180.58l8-4.62a2.31,2.31,0,0,1,2.31,4l-8,4.63a2.31,2.31,0,0,1-2.31-4Z"/><path class="cls-1" d="M207.81,184.59l-8-4.63a2.31,2.31,0,0,1,2.32-4l8,4.62a2.32,2.32,0,0,1-2.32,4Z"/><path class="cls-1" d="M217.33,153.68h-9.24a2.31,2.31,0,1,1,0-4.62h9.24a2.31,2.31,0,1,1,0,4.62Z"/><path class="cls-1" d="M199.81,122.78l8-4.62a2.31,2.31,0,0,1,2.31,4l-8,4.62a2.31,2.31,0,0,1-2.31-4Z"/><path class="cls-1" d="M179.49,104.16l4.63-8a2.31,2.31,0,0,1,4,2.31l-4.62,8a2.31,2.31,0,0,1-4-2.31Z"/><path class="cls-1" d="M171.09,202.24H138.72a2.32,2.32,0,0,1,0-4.63h32.37a2.32,2.32,0,0,1,0,4.63Z"/><path class="cls-1" d="M171.09,209.18H138.72a2.32,2.32,0,0,1,0-4.63h32.37a2.32,2.32,0,0,1,0,4.63Z"/><path class="cls-1" d="M164.15,216.11H145.66a2.31,2.31,0,0,1,0-4.62h18.49a2.31,2.31,0,1,1,0,4.62Z"/></g></g></g></svg>