<?xml version="1.0" encoding="utf-8"?>
<!-- Generator: Adobe Illustrator 24.1.3, SVG Export Plug-In . SVG Version: 6.00 Build 0)  -->
<svg version="1.1" id="Layer_1" xmlns="http://www.w3.org/2000/svg" xmlns:xlink="http://www.w3.org/1999/xlink" x="0px" y="0px"
	 viewBox="0 0 500 500" style="enable-background:new 0 0 500 500;" xml:space="preserve">
<style type="text/css">
	.st0{
		fill: white;
		stroke-width: 25;
		stroke: #54727C;
	}
</style>
<g>
	<polygon class="st0" points="250,337.77 118.27,206.04 125.34,198.97 250,323.63 374.66,198.97 381.73,206.04 	"/>
</g>
<g>
	<path class="st0" d="M250,477.22c-60.69,0-117.75-23.64-160.67-66.55C46.41,367.75,22.78,310.69,22.78,250
		S46.41,132.25,89.33,89.33S189.31,22.78,250,22.78s117.75,23.64,160.67,66.55c42.92,42.92,66.55,99.98,66.55,160.67
		s-23.64,117.75-66.55,160.67C367.75,453.59,310.69,477.22,250,477.22z M250,32.78C130.22,32.78,32.78,130.22,32.78,250
		c0,119.78,97.45,217.22,217.22,217.22c119.78,0,217.22-97.45,217.22-217.22C467.22,130.22,369.78,32.78,250,32.78z"/>
</g>
</svg>
