<?xml version="1.0" encoding="UTF-8" standalone="no"?>
<!-- Created with Inkscape (http://www.inkscape.org/) -->

<svg
   width="9629.1094mm"
   height="2123.3979mm"
   viewBox="0 0 9629.1094 2123.3979"
   version="1.1"
   id="svg60832"
   inkscape:version="1.2 (dc2aedaf03, 2022-05-15)"
   sodipodi:docname="luna-text.svg"
   xmlns:inkscape="http://www.inkscape.org/namespaces/inkscape"
   xmlns:sodipodi="http://sodipodi.sourceforge.net/DTD/sodipodi-0.dtd"
   xmlns="http://www.w3.org/2000/svg"
   xmlns:svg="http://www.w3.org/2000/svg">
  <sodipodi:namedview
     id="namedview60834"
     pagecolor="#ffffff"
     bordercolor="#666666"
     borderopacity="1.0"
     inkscape:pageshadow="2"
     inkscape:pageopacity="0"
     inkscape:pagecheckerboard="0"
     inkscape:document-units="mm"
     showgrid="false"
     inkscape:zoom="0.017111019"
     inkscape:cx="23961.168"
     inkscape:cy="3214.3031"
     inkscape:window-width="1366"
     inkscape:window-height="714"
     inkscape:window-x="0"
     inkscape:window-y="28"
     inkscape:window-maximized="1"
     inkscape:current-layer="layer1"
     inkscape:showpageshadow="2"
     inkscape:deskcolor="#d1d1d1" />
  <defs
     id="defs60829" />
  <g
     inkscape:label="Layer 1"
     inkscape:groupmode="layer"
     id="layer1">
    <path
       style="fill:#52717a;fill-opacity:1;stroke:none;stroke-width:28.6991px;stroke-linecap:butt;stroke-linejoin:miter;stroke-opacity:1"
       d="M 513.67445,138.83827 V 1354.9274 c 0,0 -26.19526,271.0445 216.18513,271.0445 H 1921.9284 l -276.7655,358.5866 -881.96491,-6.0309 c 0,0 -658.2748,53.8081 -659.74976,-512.3826 L 100,142.32879 Z"
       id="path60939"
       sodipodi:nodetypes="ccscccscc" />
    <path
       style="fill:#51717b;fill-opacity:1;stroke:none;stroke-width:28.6991px;stroke-linecap:butt;stroke-linejoin:miter;stroke-opacity:1"
       d="m 2132.6296,134.8184 h 417.0721 v 1265.1389 c 0,0 -2.1477,223.0057 179.7439,223.0057 226.1492,0 860.2133,0 860.2133,0 0,0 244.8644,24.014 244.8644,-219.7104 V 133.31936 h 396.4411 V 1469.6605 c 0,0 -13.9155,503.704 -486.286,503.704 H 2636.0875 c 0,0 -497.3578,-28.5187 -497.3578,-488.348 0,-383.1429 -6.1003,-1350.1981 -6.1003,-1350.1981 z"
       id="path61821"
       sodipodi:nodetypes="cccscscccscscc" />
    <path
       style="fill:#537179;fill-opacity:1;stroke:none;stroke-width:28.6991px;stroke-linecap:butt;stroke-linejoin:miter;stroke-opacity:1"
       d="M 4540.1378,1982.4336 V 296.47515 c 0,0 -27.0445,-149.90739 177.6029,-188.54296 162.4506,-30.669599 238.3801,77.62041 273.5608,112.39557 76.833,75.94564 1308.5645,1256.65334 1308.5645,1256.65334 V 131.51769 H 6690.12 V 1890.6958 c 0,0 -12.3991,108.1729 -172.2032,131.3506 -76.3882,11.079 -179.5465,-48.1038 -234.5859,-98.9313 -89.04,-82.2987 -1350.6373,-1243.71946 -1350.6373,-1243.71946 v 997.72806 z"
       id="path62422"
       sodipodi:nodetypes="ccssccccscccc" />
    <path
       style="fill:#53717b;fill-opacity:1;stroke:none;stroke-width:28.6991px;stroke-linecap:butt;stroke-linejoin:miter;stroke-opacity:1"
       d="m 6805.633,1981.9281 c 0,0 915.7114,-1511.82122 1073.9741,-1715.80799 176.1461,-227.03535 427.3212,-222.68574 569.7854,21.24582 97.364,166.71031 1079.7165,1692.18777 1079.7165,1692.18777 H 9063.8639 L 8784.8708,1556.9086 H 7515.4269 l 198.1956,-318.6851 H 8608.932 L 8154.0901,519.71083 7255.2261,1983.3545 Z"
       id="path10882"
       sodipodi:nodetypes="cssccccccccc" />
  </g>
</svg>
